<svg width="90" height="101" viewBox="0 0 90 101" fill="none" xmlns="http://www.w3.org/2000/svg">
<path d="M2 70.8415C5.72523 82.0137 16.63 102.879 30.4472 96.9646C47.7187 89.5713 47.7187 45.7045 37.559 19.0883C31.7266 3.80876 19.7795 -1.04425 15.7156 3.80881C9.1118 11.695 18.3105 25.4959 30.4472 33.875C42.5839 42.2541 78.7059 49.1545 82.2618 43.7328" stroke="url(#paint0_radial)" stroke-width="4"/>
<path fill-rule="evenodd" clip-rule="evenodd" d="M86.5014 44.6156C84.7967 45.1911 82.3877 46.5778 80.8068 48.7636C79.3 50.847 78.458 53.7581 79.9007 57.7806L76.1108 59.0602C74.2145 53.7725 75.2837 49.5149 77.5223 46.4196C77.8335 45.9894 78.1654 45.5838 78.5125 45.2024C77.9963 45.1124 77.4766 44.9943 76.9574 44.8445C73.222 43.7663 69.6597 41.0724 67.7634 35.7847L71.5532 34.5052C72.9958 38.5277 75.5185 40.3028 78.0327 41.0285C80.6705 41.7899 83.4463 41.426 85.151 40.8504L86.5014 44.6156Z" fill="url(#paint1_radial)"/>
<defs>
<radialGradient id="paint0_radial" cx="0" cy="0" r="1" gradientUnits="userSpaceOnUse" gradientTransform="translate(69 46) rotate(148.693) scale(100.071 83.6655)">
<stop stop-color="white"/>
<stop offset="1" stop-color="white" stop-opacity="0"/>
</radialGradient>
<radialGradient id="paint1_radial" cx="0" cy="0" r="1" gradientUnits="userSpaceOnUse" gradientTransform="translate(77.9999 45) rotate(164.055) scale(7.28011 12.2777)">
<stop stop-color="white"/>
<stop offset="1" stop-color="white" stop-opacity="0.73"/>
</radialGradient>
</defs>
</svg>
