<svg width="1105" height="430" viewBox="0 0 1105 430" fill="none" xmlns="http://www.w3.org/2000/svg">
<path fill-rule="evenodd" clip-rule="evenodd" d="M197.503 112.419H173L211.259 4H237.499L275.812 112.419H251.311L242.622 86.6686H206.141L197.503 112.419ZM204.702 84.6742L196.064 110.425H175.823L212.675 5.99433H236.084L272.988 110.425H252.747L244.058 84.6742H204.702ZM209.813 69.4788H238.947L224.789 27.4108H223.971L209.813 69.4788ZM212.593 67.4844H236.167L224.38 32.4615L212.593 67.4844ZM285.451 50.7758C290.096 37.7648 302.357 31.0822 318.107 31.0822C333.083 31.0822 350.001 37.3031 350.001 58.0057V110.425H332.214V99.6657H331.601C331.196 100.454 330.735 101.23 330.215 101.986C326.392 107.541 319.391 112.006 308.549 112.006C293.573 112.006 282.277 103.847 282.277 88.4476C282.277 70.8045 296.844 66.2663 312.076 64.6346C312.891 64.5476 313.677 64.4648 314.435 64.385C326.563 63.1083 331.498 62.5889 331.498 57.5977V57.2918C331.498 49.5921 326.796 45.2068 318.209 45.2068C309.162 45.2068 303.949 49.796 302.109 55.1501L284.833 52.7025C285.021 52.0456 285.227 51.4034 285.451 50.7758ZM330.215 105.235C325.788 110.295 318.664 114 308.549 114C300.717 114 293.65 111.867 288.506 107.524C283.318 103.144 280.278 96.6753 280.278 88.4476C280.278 78.9495 284.264 72.7697 290.386 68.8575C296.343 65.0507 304.187 63.4738 311.862 62.6516C312.668 62.5656 313.443 62.4839 314.186 62.4055C319.95 61.7974 323.849 61.3861 326.42 60.6361C327.839 60.2223 328.566 59.7782 328.947 59.3687C329.266 59.027 329.499 58.5444 329.499 57.5977V57.2918C329.499 53.8551 328.462 51.4241 326.722 49.8313C324.956 48.2147 322.182 47.2011 318.209 47.2011C309.948 47.2011 305.541 51.312 304 55.797L303.464 57.3565L282.28 54.3553L282.911 52.1547C287.316 36.7706 300.996 29.0878 318.107 29.0878C325.821 29.0878 334.241 30.682 340.795 35.1318C347.461 39.6586 352 47.0167 352 58.0057V112.419H330.215V105.235ZM305.028 94.2306C306.921 95.6251 309.765 96.4476 313.353 96.4476C323.524 96.4476 329.55 89.8191 329.55 82.3286V76.2049C329.415 76.2481 329.279 76.29 329.143 76.3307C327.724 76.7569 326.056 77.1273 324.357 77.4488C321.325 78.0225 318.05 78.466 315.671 78.7881C315.386 78.8267 315.114 78.8636 314.857 78.8987C310.827 79.4698 307.577 80.4465 305.376 81.9574C303.294 83.3864 302.114 85.304 302.114 88.1416C302.114 90.9205 303.21 92.8915 305.028 94.2306ZM314.58 76.9235C306.3 78.0963 300.115 81.0538 300.115 88.1416C300.115 94.9235 305.635 98.4419 313.353 98.4419C324.496 98.4419 331.549 91.0482 331.549 82.3286V73.0992C331.106 73.4566 330.414 73.7897 329.55 74.0995C325.981 75.3789 319.473 76.2605 315.403 76.8117C315.116 76.8506 314.841 76.8879 314.58 76.9235Z" stroke="url(#paint0_radial)" stroke-width="2"/>
<rect x="419" y="24" width="327" height="404" rx="16" fill="#111111" stroke="url(#paint1_radial)" stroke-width="4"/>
<rect x="399" y="4" width="327" height="404" rx="16" fill="#111111" stroke="url(#paint2_radial)" stroke-width="4"/>
<path d="M432 390C442.493 390 451 381.493 451 371C451 360.507 442.493 352 432 352C421.507 352 413 360.507 413 371C413 381.493 421.507 390 432 390Z" fill="#111111" stroke="url(#paint3_radial)" stroke-width="4"/>
<path d="M465.415 368C468.517 368 470.312 366.076 470.312 362.894C470.312 359.727 468.517 357.818 465.519 357.818H462.119V368H465.415ZM463.655 366.658V359.161H465.425C467.652 359.161 468.8 360.493 468.8 362.894C468.8 365.305 467.652 366.658 465.33 366.658H463.655ZM472.103 368H473.589V360.364H472.103V368ZM472.854 359.185C473.366 359.185 473.793 358.788 473.793 358.3C473.793 357.813 473.366 357.411 472.854 357.411C472.336 357.411 471.914 357.813 471.914 358.3C471.914 358.788 472.336 359.185 472.854 359.185ZM478.88 368.154C480.546 368.154 481.724 367.334 482.062 366.091L480.655 365.837C480.387 366.558 479.74 366.926 478.895 366.926C477.623 366.926 476.767 366.101 476.728 364.629H482.157V364.102C482.157 361.343 480.506 360.264 478.776 360.264C476.648 360.264 475.246 361.885 475.246 364.232C475.246 366.603 476.628 368.154 478.88 368.154ZM476.733 363.516C476.792 362.432 477.578 361.492 478.786 361.492C479.939 361.492 480.695 362.347 480.7 363.516H476.733ZM487.371 360.364H485.805V358.534H484.318V360.364H483.199V361.557H484.318V366.066C484.313 367.453 485.372 368.124 486.545 368.099C487.018 368.094 487.336 368.005 487.51 367.94L487.241 366.712C487.142 366.732 486.958 366.777 486.719 366.777C486.237 366.777 485.805 366.618 485.805 365.758V361.557H487.371V360.364ZM492.224 368.154C493.89 368.154 495.068 367.334 495.406 366.091L493.999 365.837C493.73 366.558 493.084 366.926 492.239 366.926C490.966 366.926 490.111 366.101 490.071 364.629H495.5V364.102C495.5 361.343 493.85 360.264 492.12 360.264C489.992 360.264 488.59 361.885 488.59 364.232C488.59 366.603 489.972 368.154 492.224 368.154ZM490.076 363.516C490.136 362.432 490.922 361.492 492.13 361.492C493.283 361.492 494.039 362.347 494.044 363.516H490.076ZM497.15 368H498.636V363.337C498.636 362.342 499.407 361.621 500.436 361.621C500.724 361.621 500.948 361.681 501.127 361.771L501.604 360.528C501.351 360.359 501.023 360.249 500.605 360.249C499.7 360.249 498.944 360.756 498.666 361.577H498.586V360.364H497.15V368ZM506.552 368H508.088V364.147H510.176C510.211 364.147 510.241 364.147 510.276 364.147L512.344 368H514.094L511.837 363.879C513.085 363.416 513.706 362.377 513.706 361.01C513.706 359.136 512.543 357.818 510.181 357.818H506.552V368ZM508.088 362.825V359.136H510.017C511.534 359.136 512.16 359.857 512.16 361.01C512.16 362.158 511.534 362.825 510.037 362.825H508.088ZM517.679 368.169C518.941 368.169 519.652 367.528 519.936 366.956H519.995V368H521.447V362.929C521.447 360.707 519.697 360.264 518.484 360.264C517.102 360.264 515.829 360.821 515.332 362.213L516.729 362.531C516.948 361.989 517.505 361.467 518.504 361.467C519.463 361.467 519.956 361.969 519.956 362.835V362.869C519.956 363.411 519.399 363.401 518.027 363.56C516.58 363.729 515.098 364.107 515.098 365.842C515.098 367.344 516.227 368.169 517.679 368.169ZM518.002 366.976C517.162 366.976 516.555 366.598 516.555 365.862C516.555 365.067 517.261 364.783 518.121 364.669C518.603 364.604 519.747 364.475 519.961 364.261V365.246C519.961 366.151 519.24 366.976 518.002 366.976ZM523.427 368H524.914V363.292C524.914 362.263 525.634 361.547 526.48 361.547C527.305 361.547 527.877 362.094 527.877 362.924V368H529.358V363.133C529.358 362.213 529.92 361.547 530.889 361.547C531.675 361.547 532.321 361.984 532.321 363.018V368H533.808V362.879C533.808 361.134 532.833 360.264 531.451 360.264C530.352 360.264 529.527 360.791 529.159 361.607H529.08C528.747 360.771 528.046 360.264 527.026 360.264C526.017 360.264 525.267 360.766 524.948 361.607H524.854V360.364H523.427V368ZM541.522 362.228C541.214 361.04 540.284 360.264 538.634 360.264C536.909 360.264 535.686 361.174 535.686 362.526C535.686 363.61 536.342 364.331 537.774 364.649L539.066 364.933C539.802 365.097 540.145 365.425 540.145 365.902C540.145 366.494 539.514 366.956 538.539 366.956C537.65 366.956 537.078 366.573 536.899 365.822L535.462 366.041C535.711 367.393 536.834 368.154 538.549 368.154C540.394 368.154 541.672 367.175 541.672 365.793C541.672 364.714 540.985 364.048 539.583 363.724L538.37 363.446C537.53 363.247 537.167 362.964 537.172 362.447C537.167 361.86 537.804 361.442 538.649 361.442C539.574 361.442 540.001 361.955 540.175 362.467L541.522 362.228Z" fill="white"/>
<path opacity="0.84" d="M464.972 376.273H463.915L461.733 377.722V378.795L463.864 377.381H463.915V385H464.972V376.273ZM470.328 385.119C472.254 385.119 473.362 383.487 473.362 380.636C473.362 377.807 472.237 376.153 470.328 376.153C468.419 376.153 467.294 377.807 467.294 380.636C467.294 383.487 468.402 385.119 470.328 385.119ZM470.328 384.182C469.058 384.182 468.317 382.908 468.317 380.636C468.317 378.369 469.067 377.074 470.328 377.074C471.589 377.074 472.339 378.369 472.339 380.636C472.339 382.908 471.598 384.182 470.328 384.182ZM478.51 376.273V385H479.499V378.369H479.584L482.311 385H483.266L485.993 378.369H486.078V385H487.067V376.273H485.805L482.839 383.517H482.737L479.771 376.273H478.51ZM489.049 385H490.055V378.455H489.049V385ZM489.561 377.364C489.953 377.364 490.277 377.057 490.277 376.682C490.277 376.307 489.953 376 489.561 376C489.169 376 488.845 376.307 488.845 376.682C488.845 377.057 489.169 377.364 489.561 377.364ZM492.903 381.062C492.903 379.92 493.61 379.273 494.573 379.273C495.506 379.273 496.073 379.882 496.073 380.909V385H497.079V380.841C497.079 379.17 496.188 378.369 494.863 378.369C493.874 378.369 493.261 378.812 492.954 379.477H492.869V378.455H491.897V385H492.903V381.062ZM503.042 382.324C503.042 383.551 502.104 384.114 501.354 384.114C500.519 384.114 499.922 383.5 499.922 382.545V378.455H498.917V382.614C498.917 384.284 499.803 385.085 501.03 385.085C502.019 385.085 502.667 384.557 502.973 383.892H503.042V385H504.047V378.455H503.042V382.324ZM508.736 378.455H507.338V376.886H506.332V378.455H505.344V379.307H506.332V383.398C506.332 384.54 507.253 385.085 508.105 385.085C508.48 385.085 508.719 385.017 508.855 384.966L508.651 384.062C508.565 384.08 508.429 384.114 508.207 384.114C507.764 384.114 507.338 383.977 507.338 383.125V379.307H508.736V378.455ZM512.923 385.136C514.252 385.136 515.224 384.472 515.531 383.483L514.559 383.21C514.303 383.892 513.711 384.233 512.923 384.233C511.742 384.233 510.928 383.47 510.881 382.068H515.633V381.642C515.633 379.205 514.184 378.369 512.82 378.369C511.048 378.369 509.871 379.767 509.871 381.778C509.871 383.79 511.031 385.136 512.923 385.136ZM510.881 381.199C510.95 380.18 511.67 379.273 512.82 379.273C513.911 379.273 514.61 380.091 514.61 381.199H510.881ZM521.799 379.92C521.484 378.991 520.776 378.369 519.481 378.369C518.1 378.369 517.077 379.153 517.077 380.261C517.077 381.165 517.614 381.77 518.816 382.051L519.907 382.307C520.567 382.46 520.879 382.776 520.879 383.227C520.879 383.79 520.282 384.25 519.344 384.25C518.522 384.25 518.006 383.896 517.827 383.193L516.873 383.432C517.107 384.544 518.023 385.136 519.362 385.136C520.883 385.136 521.918 384.305 521.918 383.176C521.918 382.264 521.347 381.689 520.18 381.403L519.208 381.165C518.433 380.973 518.083 380.713 518.083 380.21C518.083 379.648 518.68 379.239 519.481 379.239C520.359 379.239 520.721 379.724 520.896 380.176L521.799 379.92ZM528.733 385.153C529.875 385.153 530.472 384.54 530.676 384.114H530.728V385H531.733V380.688C531.733 378.608 530.148 378.369 529.313 378.369C528.324 378.369 527.199 378.71 526.688 379.903L527.642 380.244C527.864 379.767 528.388 379.256 529.347 379.256C530.272 379.256 530.728 379.746 530.728 380.585V380.619C530.728 381.105 530.233 381.062 529.04 381.216C527.826 381.374 526.5 381.642 526.5 383.142C526.5 384.42 527.489 385.153 528.733 385.153ZM528.887 384.25C528.086 384.25 527.506 383.892 527.506 383.193C527.506 382.426 528.205 382.188 528.989 382.085C529.415 382.034 530.557 381.915 530.728 381.71V382.631C530.728 383.449 530.08 384.25 528.887 384.25ZM536.211 387.591C537.779 387.591 539.04 386.875 539.04 385.188V378.455H538.069V379.494H537.967C537.745 379.153 537.336 378.369 536.058 378.369C534.404 378.369 533.262 379.682 533.262 381.693C533.262 383.739 534.455 384.898 536.04 384.898C537.319 384.898 537.728 384.148 537.95 383.79H538.035V385.119C538.035 386.21 537.268 386.705 536.211 386.705C535.022 386.705 534.604 386.078 534.336 385.716L533.535 386.278C533.944 386.964 534.749 387.591 536.211 387.591ZM536.177 383.994C534.915 383.994 534.268 383.04 534.268 381.676C534.268 380.347 534.898 379.273 536.177 379.273C537.404 379.273 538.052 380.261 538.052 381.676C538.052 383.125 537.387 383.994 536.177 383.994ZM543.54 385.136C545.313 385.136 546.506 383.79 546.506 381.761C546.506 379.716 545.313 378.369 543.54 378.369C541.768 378.369 540.575 379.716 540.575 381.761C540.575 383.79 541.768 385.136 543.54 385.136ZM543.54 384.233C542.194 384.233 541.58 383.074 541.58 381.761C541.58 380.449 542.194 379.273 543.54 379.273C544.887 379.273 545.501 380.449 545.501 381.761C545.501 383.074 544.887 384.233 543.54 384.233Z" fill="#707A89"/>
<path fill-rule="evenodd" clip-rule="evenodd" d="M686 373C687.105 373 688 372.105 688 371C688 369.895 687.105 369 686 369C684.895 369 684 369.895 684 371C684 372.105 684.895 373 686 373ZM693 373C694.105 373 695 372.105 695 371C695 369.895 694.105 369 693 369C691.895 369 691 369.895 691 371C691 372.105 691.895 373 693 373ZM702 371C702 372.105 701.105 373 700 373C698.895 373 698 372.105 698 371C698 369.895 698.895 369 700 369C701.105 369 702 369.895 702 371Z" fill="url(#paint4_radial)"/>
<path fill-rule="evenodd" clip-rule="evenodd" d="M534 130H590C594.418 130 598 133.582 598 138V181.172L587.743 170.914C585.4 168.571 581.601 168.571 579.258 170.914L574.75 175.422L555.743 156.414C553.4 154.071 549.601 154.071 547.258 156.414L526 177.672V138C526 133.582 529.582 130 534 130ZM602 138V185.172L602.414 185.586L602 186V194C602 200.627 596.628 206 590 206H534C527.373 206 522 200.627 522 194V182.5L521.586 182.086L522 181.672V138C522 131.373 527.373 126 534 126H590C596.628 126 602 131.373 602 138ZM584.914 173.743L598 186.828V194C598 195.352 597.665 196.627 597.072 197.743L577.579 178.25L582.086 173.743C582.867 172.962 584.133 172.962 584.914 173.743ZM526 183.328L550.086 159.243C550.867 158.462 552.133 158.462 552.914 159.243L594.372 200.701C593.116 201.522 591.614 202 590 202H534C529.582 202 526 198.418 526 194V183.328ZM578 145C578 147.209 576.209 149 574 149C571.791 149 570 147.209 570 145C570 142.791 571.791 141 574 141C576.209 141 578 142.791 578 145ZM582 145C582 149.418 578.418 153 574 153C569.582 153 566 149.418 566 145C566 140.582 569.582 137 574 137C578.418 137 582 140.582 582 145Z" fill="url(#paint5_radial)"/>
<rect x="792" y="2" width="311" height="59" rx="6" fill="#111111" stroke="url(#paint6_radial)" stroke-width="4"/>
<path d="M921.765 37H926.504C929.377 37 930.675 35.5692 930.675 33.6737C930.675 31.7599 929.335 30.6793 928.109 30.6129V30.4922C929.244 30.2024 930.192 29.4297 930.192 27.8842C930.192 26.055 928.924 24.6364 926.292 24.6364H921.765V37ZM923.63 35.4002V31.44H926.389C927.886 31.44 928.822 32.4059 928.822 33.5831C928.822 34.6214 928.115 35.4002 926.322 35.4002H923.63ZM923.63 29.9851V26.2241H926.178C927.657 26.2241 928.363 27.0028 928.363 28.0291C928.363 29.2244 927.385 29.9851 926.129 29.9851H923.63ZM938.617 33.1545C938.623 34.7301 937.452 35.4787 936.437 35.4787C935.32 35.4787 934.548 34.6697 934.548 33.408V27.7273H932.743V33.6254C932.743 35.9254 934.004 37.1207 935.785 37.1207C937.18 37.1207 938.128 36.3842 938.556 35.3942H938.653V37H940.428V27.7273H938.617V33.1545ZM947.182 27.7273H945.28V25.5057H943.475V27.7273H942.117V29.1761H943.475V34.6516C943.469 36.3359 944.755 37.1509 946.179 37.1207C946.753 37.1147 947.139 37.006 947.351 36.9276L947.025 35.4364C946.904 35.4606 946.68 35.5149 946.391 35.5149C945.805 35.5149 945.28 35.3217 945.28 34.2773V29.1761H947.182V27.7273ZM953.507 27.7273H951.605V25.5057H949.8V27.7273H948.442V29.1761H949.8V34.6516C949.794 36.3359 951.08 37.1509 952.505 37.1207C953.078 37.1147 953.464 37.006 953.676 36.9276L953.35 35.4364C953.229 35.4606 953.006 35.5149 952.716 35.5149C952.13 35.5149 951.605 35.3217 951.605 34.2773V29.1761H953.507V27.7273ZM959.31 37.1871C961.924 37.1871 963.632 35.2734 963.632 32.4059C963.632 29.5202 961.924 27.6065 959.31 27.6065C956.696 27.6065 954.987 29.5202 954.987 32.4059C954.987 35.2734 956.696 37.1871 959.31 37.1871ZM959.316 35.6719C957.607 35.6719 956.81 34.1808 956.81 32.3999C956.81 30.625 957.607 29.1158 959.316 29.1158C961.012 29.1158 961.809 30.625 961.809 32.3999C961.809 34.1808 961.012 35.6719 959.316 35.6719ZM967.452 31.4943C967.452 30.0153 968.358 29.1701 969.613 29.1701C970.839 29.1701 971.581 29.973 971.581 31.3192V37H973.386V31.1019C973.386 28.8079 972.125 27.6065 970.229 27.6065C968.835 27.6065 967.923 28.2525 967.494 29.2365H967.38V27.7273H965.647V37H967.452V31.4943Z" fill="white"/>
<path fill-rule="evenodd" clip-rule="evenodd" d="M1036 32.0417L1065.32 32.0417C1062.93 33.3906 1060.96 35.5947 1060.96 39L1063.04 39C1063.04 36.3472 1064.66 34.6397 1066.95 33.5391C1069.27 32.4268 1072.1 32.0417 1074 32.0417L1074 29.9583C1074 29.9583 1074 29.9583 1073.99 29.9583C1072.09 29.9573 1069.27 29.5718 1066.95 28.4609C1064.66 27.3602 1063.04 25.6528 1063.04 23L1060.96 23C1060.96 26.4053 1062.93 28.6093 1065.32 29.9583L1036 29.9583L1036 32.0417Z" fill="url(#paint7_radial)"/>
<rect x="2" y="336" width="351" height="50" rx="10" fill="#111111"/>
<path fill-rule="evenodd" clip-rule="evenodd" d="M35.9999 369.5C35.7341 369.501 35.4786 369.397 35.2899 369.21L27.5199 361.43C25.4914 359.38 25.4914 356.079 27.5199 354.03C29.565 351.99 32.8747 351.99 34.9199 354.03L35.9999 355.11L37.0799 354.03C39.125 351.99 42.4347 351.99 44.4799 354.03C46.5083 356.079 46.5083 359.38 44.4799 361.43L36.7099 369.21C36.5212 369.397 36.2657 369.501 35.9999 369.5Z" stroke="url(#paint8_radial)" stroke-width="2"/>
<path fill-rule="evenodd" clip-rule="evenodd" d="M35.9999 369.5C35.7341 369.501 35.4786 369.397 35.2899 369.21L27.5199 361.43C25.4914 359.38 25.4914 356.079 27.5199 354.03C29.565 351.99 32.8747 351.99 34.9199 354.03L35.9999 355.11L37.0799 354.03C39.125 351.99 42.4347 351.99 44.4799 354.03C46.5083 356.079 46.5083 359.38 44.4799 361.43L36.7099 369.21C36.5212 369.397 36.2657 369.501 35.9999 369.5Z" stroke="url(#paint9_radial)" stroke-width="2"/>
<path fill-rule="evenodd" clip-rule="evenodd" d="M87.0124 353.942C83.644 350.547 78.3411 350.029 74.3812 352.709C70.4212 355.388 68.9224 360.509 70.8111 364.905C70.9065 365.104 70.9379 365.327 70.9007 365.543L70.0249 369.759C69.9564 370.087 70.0574 370.428 70.2936 370.666C70.4863 370.858 70.7487 370.962 71.0201 370.955H71.2191L75.4784 370.098C75.6949 370.072 75.9144 370.103 76.1153 370.188C80.5055 372.079 85.6183 370.578 88.294 366.612C90.9697 362.646 90.4525 357.336 87.0621 353.962L87.0124 353.942ZM87.8384 362.274C87.4441 364.685 85.968 366.782 83.833 367.964C81.698 369.146 79.1398 369.282 76.8916 368.334C76.498 368.166 76.0753 368.078 75.6476 368.075C75.4608 368.076 75.2744 368.093 75.0903 368.125L72.284 368.693L72.8512 365.882C72.9642 365.273 72.8914 364.645 72.6422 364.078C71.6954 361.827 71.8315 359.265 73.0116 357.126C74.1916 354.988 76.2854 353.51 78.6928 353.115C81.2231 352.699 83.7985 353.529 85.6116 355.345C87.4248 357.161 88.2536 359.74 87.8384 362.274Z" fill="url(#paint10_radial)"/>
<path fill-rule="evenodd" clip-rule="evenodd" d="M133.5 352.513C133.489 352.421 133.469 352.33 133.44 352.242V352.152C133.392 352.041 133.324 351.939 133.24 351.852C133.155 351.772 133.056 351.708 132.949 351.662H132.859C132.767 351.591 132.662 351.54 132.549 351.511H132.499C132.4 351.496 132.298 351.496 132.199 351.511L114.188 357.521C113.778 357.656 113.5 358.039 113.5 358.472C113.5 358.905 113.778 359.288 114.188 359.424L122.723 362.268L125.565 370.811C125.7 371.222 126.083 371.5 126.516 371.5C126.948 371.5 127.331 371.222 127.466 370.811L133.47 352.783C133.492 352.695 133.502 352.604 133.5 352.513ZM128.797 354.806L123.224 360.385L117.65 358.522L128.797 354.806ZM126.495 367.376L124.634 361.797L130.208 356.219L126.495 367.376Z" fill="url(#paint11_radial)"/>
<path fill-rule="evenodd" clip-rule="evenodd" d="M320 363C321.105 363 322 362.105 322 361C322 359.895 321.105 359 320 359C318.895 359 318 359.895 318 361C318 362.105 318.895 363 320 363ZM327 363C328.105 363 329 362.105 329 361C329 359.895 328.105 359 327 359C325.895 359 325 359.895 325 361C325 362.105 325.895 363 327 363ZM336 361C336 362.105 335.105 363 334 363C332.895 363 332 362.105 332 361C332 359.895 332.895 359 334 359C335.105 359 336 359.895 336 361Z" fill="white"/>
<rect x="2" y="336" width="351" height="50" rx="10" stroke="url(#paint12_radial)" stroke-width="4"/>
<rect x="255" y="178" width="96" height="96" rx="16" fill="#111111" stroke="url(#paint13_radial)" stroke-width="4"/>
<path fill-rule="evenodd" clip-rule="evenodd" d="M303 206C301.895 206 301 206.895 301 208V224H285C283.895 224 283 224.895 283 226C283 227.105 283.895 228 285 228H301V244C301 245.105 301.895 246 303 246C304.105 246 305 245.105 305 244V228H321C322.105 228 323 227.105 323 226C323 224.895 322.105 224 321 224H305V208C305 206.895 304.105 206 303 206Z" fill="url(#paint14_radial)"/>
<rect x="796" y="319" width="92" height="92" rx="46" stroke="url(#paint15_radial)" stroke-width="4"/>
<path d="M862 371.667V347.667C862 346.2 860.8 345 859.333 345H824.667C823.2 345 822 346.2 822 347.667V385L832.667 374.333H859.333C860.8 374.333 862 373.133 862 371.667Z" stroke="url(#paint16_radial)" stroke-width="4"/>
<g clip-path="url(#clip0)">
<rect x="792" y="121" width="309" height="134" rx="10" fill="#111111"/>
<path fill-rule="evenodd" clip-rule="evenodd" d="M840 172C849.389 172 857 164.389 857 155C857 145.611 849.389 138 840 138C830.611 138 823 145.611 823 155C823 164.389 830.611 172 840 172Z" stroke="url(#paint17_radial)" stroke-width="4"/>
<path d="M873.415 152C876.517 152 878.312 150.076 878.312 146.894C878.312 143.727 876.517 141.818 873.519 141.818H870.119V152H873.415ZM871.655 150.658V143.161H873.425C875.652 143.161 876.8 144.493 876.8 146.894C876.8 149.305 875.652 150.658 873.33 150.658H871.655ZM880.103 152H881.589V144.364H880.103V152ZM880.854 143.185C881.366 143.185 881.793 142.788 881.793 142.3C881.793 141.813 881.366 141.411 880.854 141.411C880.336 141.411 879.914 141.813 879.914 142.3C879.914 142.788 880.336 143.185 880.854 143.185ZM886.88 152.154C888.546 152.154 889.724 151.334 890.062 150.091L888.655 149.837C888.387 150.558 887.74 150.926 886.895 150.926C885.623 150.926 884.767 150.101 884.728 148.629H890.157V148.102C890.157 145.343 888.506 144.264 886.776 144.264C884.648 144.264 883.246 145.885 883.246 148.232C883.246 150.603 884.628 152.154 886.88 152.154ZM884.733 147.516C884.792 146.432 885.578 145.492 886.786 145.492C887.939 145.492 888.695 146.347 888.7 147.516H884.733ZM895.371 144.364H893.805V142.534H892.318V144.364H891.199V145.557H892.318V150.066C892.313 151.453 893.372 152.124 894.545 152.099C895.018 152.094 895.336 152.005 895.51 151.94L895.241 150.712C895.142 150.732 894.958 150.777 894.719 150.777C894.237 150.777 893.805 150.618 893.805 149.758V145.557H895.371V144.364ZM900.224 152.154C901.89 152.154 903.068 151.334 903.406 150.091L901.999 149.837C901.73 150.558 901.084 150.926 900.239 150.926C898.966 150.926 898.111 150.101 898.071 148.629H903.5V148.102C903.5 145.343 901.85 144.264 900.12 144.264C897.992 144.264 896.59 145.885 896.59 148.232C896.59 150.603 897.972 152.154 900.224 152.154ZM898.076 147.516C898.136 146.432 898.922 145.492 900.13 145.492C901.283 145.492 902.039 146.347 902.044 147.516H898.076ZM905.15 152H906.636V147.337C906.636 146.342 907.407 145.621 908.436 145.621C908.724 145.621 908.948 145.681 909.127 145.771L909.604 144.528C909.351 144.359 909.023 144.249 908.605 144.249C907.7 144.249 906.944 144.756 906.666 145.577H906.586V144.364H905.15V152ZM914.552 152H916.088V148.147H918.176C918.211 148.147 918.241 148.147 918.276 148.147L920.344 152H922.094L919.837 147.879C921.085 147.416 921.706 146.377 921.706 145.01C921.706 143.136 920.543 141.818 918.181 141.818H914.552V152ZM916.088 146.825V143.136H918.017C919.534 143.136 920.16 143.857 920.16 145.01C920.16 146.158 919.534 146.825 918.037 146.825H916.088ZM925.679 152.169C926.941 152.169 927.652 151.528 927.936 150.956H927.995V152H929.447V146.929C929.447 144.707 927.697 144.264 926.484 144.264C925.102 144.264 923.829 144.821 923.332 146.213L924.729 146.531C924.948 145.989 925.505 145.467 926.504 145.467C927.463 145.467 927.956 145.969 927.956 146.835V146.869C927.956 147.411 927.399 147.401 926.027 147.56C924.58 147.729 923.098 148.107 923.098 149.842C923.098 151.344 924.227 152.169 925.679 152.169ZM926.002 150.976C925.162 150.976 924.555 150.598 924.555 149.862C924.555 149.067 925.261 148.783 926.121 148.669C926.603 148.604 927.747 148.475 927.961 148.261V149.246C927.961 150.151 927.24 150.976 926.002 150.976ZM931.427 152H932.914V147.292C932.914 146.263 933.634 145.547 934.48 145.547C935.305 145.547 935.877 146.094 935.877 146.924V152H937.358V147.133C937.358 146.213 937.92 145.547 938.889 145.547C939.675 145.547 940.321 145.984 940.321 147.018V152H941.808V146.879C941.808 145.134 940.833 144.264 939.451 144.264C938.352 144.264 937.527 144.791 937.159 145.607H937.08C936.747 144.771 936.046 144.264 935.026 144.264C934.017 144.264 933.267 144.766 932.948 145.607H932.854V144.364H931.427V152ZM949.522 146.228C949.214 145.04 948.284 144.264 946.634 144.264C944.909 144.264 943.686 145.174 943.686 146.526C943.686 147.61 944.342 148.331 945.774 148.649L947.066 148.933C947.802 149.097 948.145 149.425 948.145 149.902C948.145 150.494 947.514 150.956 946.539 150.956C945.65 150.956 945.078 150.573 944.899 149.822L943.462 150.041C943.711 151.393 944.834 152.154 946.549 152.154C948.394 152.154 949.672 151.175 949.672 149.793C949.672 148.714 948.985 148.048 947.583 147.724L946.37 147.446C945.53 147.247 945.167 146.964 945.172 146.447C945.167 145.86 945.804 145.442 946.649 145.442C947.574 145.442 948.001 145.955 948.175 146.467L949.522 146.228Z" fill="white"/>
<path opacity="0.84" d="M872.699 159.273H871.761C871.706 159.362 871.08 160.568 869.733 160.568V161.455C870.734 161.455 871.45 161.045 871.574 160.807H871.642V168H872.699V159.273ZM878.047 168.119C879.973 168.119 881.081 166.487 881.081 163.636C881.081 160.807 879.956 159.153 878.047 159.153C876.138 159.153 875.013 160.807 875.013 163.636C875.013 166.487 876.121 168.119 878.047 168.119ZM878.047 167.182C876.777 167.182 876.036 165.908 876.036 163.636C876.036 161.369 876.786 160.074 878.047 160.074C879.308 160.074 880.058 161.369 880.058 163.636C880.058 165.908 879.317 167.182 878.047 167.182ZM886.229 159.273V168H887.217V161.369H887.303L890.03 168H890.984L893.712 161.369H893.797V168H894.786V159.273H893.524L890.558 166.517H890.456L887.49 159.273H886.229ZM897.038 168H898.043V161.455H897.038V168ZM897.549 160.364C897.941 160.364 898.265 160.057 898.265 159.682C898.265 159.307 897.941 159 897.549 159C897.157 159 896.833 159.307 896.833 159.682C896.833 160.057 897.157 160.364 897.549 160.364ZM900.891 164.062C900.891 162.92 901.598 162.273 902.561 162.273C903.495 162.273 904.061 162.882 904.061 163.909V168H905.067V163.841C905.067 162.17 904.176 161.369 902.851 161.369C901.863 161.369 901.249 161.812 900.942 162.477H900.857V161.455H899.885V168H900.891V164.062ZM911.03 165.324C911.03 166.551 910.092 167.114 909.342 167.114C908.507 167.114 907.911 166.5 907.911 165.545V161.455H906.905V165.614C906.905 167.284 907.791 168.085 909.018 168.085C910.007 168.085 910.655 167.557 910.962 166.892H911.03V168H912.036V161.455H911.03V165.324ZM916.724 161.455H915.326V159.886H914.321V161.455H913.332V162.307H914.321V166.398C914.321 167.54 915.241 168.085 916.093 168.085C916.468 168.085 916.707 168.017 916.843 167.966L916.639 167.062C916.554 167.08 916.417 167.114 916.196 167.114C915.752 167.114 915.326 166.977 915.326 166.125V162.307H916.724V161.455ZM920.911 168.136C922.24 168.136 923.212 167.472 923.519 166.483L922.547 166.21C922.292 166.892 921.699 167.233 920.911 167.233C919.73 167.233 918.917 166.47 918.87 165.068H923.621V164.642C923.621 162.205 922.172 161.369 920.809 161.369C919.036 161.369 917.86 162.767 917.86 164.778C917.86 166.79 919.019 168.136 920.911 168.136ZM918.87 164.199C918.938 163.18 919.658 162.273 920.809 162.273C921.9 162.273 922.598 163.091 922.598 164.199H918.87ZM929.787 162.92C929.472 161.991 928.765 161.369 927.469 161.369C926.088 161.369 925.066 162.153 925.066 163.261C925.066 164.165 925.603 164.77 926.804 165.051L927.895 165.307C928.556 165.46 928.867 165.776 928.867 166.227C928.867 166.79 928.27 167.25 927.333 167.25C926.51 167.25 925.995 166.896 925.816 166.193L924.861 166.432C925.096 167.544 926.012 168.136 927.35 168.136C928.871 168.136 929.907 167.305 929.907 166.176C929.907 165.264 929.336 164.689 928.168 164.403L927.196 164.165C926.421 163.973 926.071 163.713 926.071 163.21C926.071 162.648 926.668 162.239 927.469 162.239C928.347 162.239 928.709 162.724 928.884 163.176L929.787 162.92ZM936.722 168.153C937.864 168.153 938.46 167.54 938.665 167.114H938.716V168H939.722V163.688C939.722 161.608 938.136 161.369 937.301 161.369C936.312 161.369 935.188 161.71 934.676 162.903L935.631 163.244C935.852 162.767 936.376 162.256 937.335 162.256C938.26 162.256 938.716 162.746 938.716 163.585V163.619C938.716 164.105 938.222 164.062 937.028 164.216C935.814 164.374 934.489 164.642 934.489 166.142C934.489 167.42 935.477 168.153 936.722 168.153ZM936.875 167.25C936.074 167.25 935.494 166.892 935.494 166.193C935.494 165.426 936.193 165.188 936.977 165.085C937.403 165.034 938.545 164.915 938.716 164.71V165.631C938.716 166.449 938.068 167.25 936.875 167.25ZM944.199 170.591C945.767 170.591 947.029 169.875 947.029 168.188V161.455H946.057V162.494H945.955C945.733 162.153 945.324 161.369 944.046 161.369C942.392 161.369 941.25 162.682 941.25 164.693C941.25 166.739 942.444 167.898 944.029 167.898C945.307 167.898 945.716 167.148 945.938 166.79H946.023V168.119C946.023 169.21 945.256 169.705 944.199 169.705C943.01 169.705 942.593 169.078 942.324 168.716L941.523 169.278C941.932 169.964 942.738 170.591 944.199 170.591ZM944.165 166.994C942.904 166.994 942.256 166.04 942.256 164.676C942.256 163.347 942.887 162.273 944.165 162.273C945.392 162.273 946.04 163.261 946.04 164.676C946.04 166.125 945.375 166.994 944.165 166.994ZM951.529 168.136C953.301 168.136 954.495 166.79 954.495 164.761C954.495 162.716 953.301 161.369 951.529 161.369C949.756 161.369 948.563 162.716 948.563 164.761C948.563 166.79 949.756 168.136 951.529 168.136ZM951.529 167.233C950.182 167.233 949.569 166.074 949.569 164.761C949.569 163.449 950.182 162.273 951.529 162.273C952.875 162.273 953.489 163.449 953.489 164.761C953.489 166.074 952.875 167.233 951.529 167.233Z" fill="white"/>
<path d="M830.364 197H831.818C831.386 194.75 829.5 193.205 827.045 193.205C824.062 193.205 821.955 195.5 821.955 199.182C821.955 202.864 824.045 205.159 827.136 205.159C829.909 205.159 831.886 203.312 831.886 200.432V199.182H827.455V200.432H830.523C830.483 202.523 829.108 203.841 827.136 203.841C824.977 203.841 823.318 202.205 823.318 199.182C823.318 196.159 824.977 194.523 827.045 194.523C828.727 194.523 829.869 195.472 830.364 197ZM837.663 205.182C840.027 205.182 841.618 203.386 841.618 200.682C841.618 197.955 840.027 196.159 837.663 196.159C835.3 196.159 833.709 197.955 833.709 200.682C833.709 203.386 835.3 205.182 837.663 205.182ZM837.663 203.977C835.868 203.977 835.05 202.432 835.05 200.682C835.05 198.932 835.868 197.364 837.663 197.364C839.459 197.364 840.277 198.932 840.277 200.682C840.277 202.432 839.459 203.977 837.663 203.977ZM847.21 205.182C849.574 205.182 851.165 203.386 851.165 200.682C851.165 197.955 849.574 196.159 847.21 196.159C844.847 196.159 843.256 197.955 843.256 200.682C843.256 203.386 844.847 205.182 847.21 205.182ZM847.21 203.977C845.415 203.977 844.597 202.432 844.597 200.682C844.597 198.932 845.415 197.364 847.21 197.364C849.006 197.364 849.824 198.932 849.824 200.682C849.824 202.432 849.006 203.977 847.21 203.977ZM856.507 205.182C858.189 205.182 858.757 204.136 859.053 203.659H859.212V205H860.507V193.364H859.166V197.659H859.053C858.757 197.205 858.234 196.159 856.53 196.159C854.325 196.159 852.803 197.909 852.803 200.659C852.803 203.432 854.325 205.182 856.507 205.182ZM856.689 203.977C855.007 203.977 854.143 202.5 854.143 200.636C854.143 198.795 854.984 197.364 856.689 197.364C858.325 197.364 859.189 198.682 859.189 200.636C859.189 202.614 858.303 203.977 856.689 203.977ZM870.945 205.182C872.626 205.182 873.195 204.136 873.49 203.659H873.649V205H874.945V193.364H873.604V197.659H873.49C873.195 197.205 872.672 196.159 870.967 196.159C868.763 196.159 867.24 197.909 867.24 200.659C867.24 203.432 868.763 205.182 870.945 205.182ZM871.126 203.977C869.445 203.977 868.581 202.5 868.581 200.636C868.581 198.795 869.422 197.364 871.126 197.364C872.763 197.364 873.626 198.682 873.626 200.636C873.626 202.614 872.74 203.977 871.126 203.977ZM881.246 205.182C883.018 205.182 884.314 204.295 884.723 202.977L883.428 202.614C883.087 203.523 882.297 203.977 881.246 203.977C879.672 203.977 878.587 202.96 878.524 201.091H884.859V200.523C884.859 197.273 882.928 196.159 881.109 196.159C878.746 196.159 877.178 198.023 877.178 200.705C877.178 203.386 878.723 205.182 881.246 205.182ZM878.524 199.932C878.615 198.574 879.575 197.364 881.109 197.364C882.564 197.364 883.496 198.455 883.496 199.932H878.524ZM893.081 198.227C892.661 196.989 891.717 196.159 889.99 196.159C888.149 196.159 886.786 197.205 886.786 198.682C886.786 199.886 887.501 200.693 889.104 201.068L890.558 201.409C891.439 201.614 891.854 202.034 891.854 202.636C891.854 203.386 891.058 204 889.808 204C888.712 204 888.024 203.528 887.786 202.591L886.513 202.909C886.825 204.392 888.047 205.182 889.831 205.182C891.859 205.182 893.24 204.074 893.24 202.568C893.24 201.352 892.479 200.585 890.922 200.205L889.626 199.886C888.592 199.631 888.126 199.284 888.126 198.614C888.126 197.864 888.922 197.318 889.99 197.318C891.161 197.318 891.643 197.966 891.876 198.568L893.081 198.227ZM895.259 205H896.599V196.273H895.259V205ZM895.94 194.818C896.463 194.818 896.895 194.409 896.895 193.909C896.895 193.409 896.463 193 895.94 193C895.418 193 894.986 193.409 894.986 193.909C894.986 194.409 895.418 194.818 895.94 194.818ZM902.578 208.455C904.669 208.455 906.351 207.5 906.351 205.25V196.273H905.055V197.659H904.919C904.624 197.205 904.078 196.159 902.374 196.159C900.169 196.159 898.646 197.909 898.646 200.591C898.646 203.318 900.237 204.864 902.351 204.864C904.055 204.864 904.601 203.864 904.896 203.386H905.01V205.159C905.01 206.614 903.987 207.273 902.578 207.273C900.993 207.273 900.436 206.438 900.078 205.955L899.01 206.705C899.555 207.619 900.629 208.455 902.578 208.455ZM902.533 203.659C900.851 203.659 899.987 202.386 899.987 200.568C899.987 198.795 900.828 197.364 902.533 197.364C904.169 197.364 905.033 198.682 905.033 200.568C905.033 202.5 904.146 203.659 902.533 203.659ZM910.146 199.75C910.146 198.227 911.089 197.364 912.374 197.364C913.618 197.364 914.374 198.176 914.374 199.545V205H915.714V199.455C915.714 197.227 914.527 196.159 912.76 196.159C911.442 196.159 910.624 196.75 910.214 197.636H910.101V196.273H908.805V205H910.146V199.75ZM922.665 205H924.006V196.273H922.665V205ZM923.347 194.818C923.869 194.818 924.301 194.409 924.301 193.909C924.301 193.409 923.869 193 923.347 193C922.824 193 922.392 193.409 922.392 193.909C922.392 194.409 922.824 194.818 923.347 194.818ZM932.643 198.227C932.223 196.989 931.28 196.159 929.553 196.159C927.712 196.159 926.348 197.205 926.348 198.682C926.348 199.886 927.064 200.693 928.666 201.068L930.121 201.409C931.001 201.614 931.416 202.034 931.416 202.636C931.416 203.386 930.621 204 929.371 204C928.274 204 927.587 203.528 927.348 202.591L926.075 202.909C926.388 204.392 927.609 205.182 929.393 205.182C931.422 205.182 932.803 204.074 932.803 202.568C932.803 201.352 932.041 200.585 930.484 200.205L929.189 199.886C928.155 199.631 927.689 199.284 927.689 198.614C927.689 197.864 928.484 197.318 929.553 197.318C930.723 197.318 931.206 197.966 931.439 198.568L932.643 198.227ZM941.889 205.205C943.412 205.205 944.207 204.386 944.48 203.818H944.548V205H945.889V199.25C945.889 196.477 943.776 196.159 942.662 196.159C941.344 196.159 939.844 196.614 939.162 198.205L940.435 198.659C940.73 198.023 941.429 197.341 942.707 197.341C943.94 197.341 944.548 197.994 944.548 199.114V199.159C944.548 199.807 943.889 199.75 942.298 199.955C940.679 200.165 938.912 200.523 938.912 202.523C938.912 204.227 940.23 205.205 941.889 205.205ZM942.094 204C941.026 204 940.253 203.523 940.253 202.591C940.253 201.568 941.185 201.25 942.23 201.114C942.798 201.045 944.321 200.886 944.548 200.614V201.841C944.548 202.932 943.685 204 942.094 204ZM954.518 198.227C954.098 196.989 953.155 196.159 951.428 196.159C949.587 196.159 948.223 197.205 948.223 198.682C948.223 199.886 948.939 200.693 950.541 201.068L951.996 201.409C952.876 201.614 953.291 202.034 953.291 202.636C953.291 203.386 952.496 204 951.246 204C950.149 204 949.462 203.528 949.223 202.591L947.95 202.909C948.263 204.392 949.484 205.182 951.268 205.182C953.297 205.182 954.678 204.074 954.678 202.568C954.678 201.352 953.916 200.585 952.359 200.205L951.064 199.886C950.03 199.631 949.564 199.284 949.564 198.614C949.564 197.864 950.359 197.318 951.428 197.318C952.598 197.318 953.081 197.966 953.314 198.568L954.518 198.227ZM962.537 193.364H961.196V205H962.537V193.364ZM964.993 205H966.334V196.273H964.993V205ZM965.675 194.818C966.197 194.818 966.629 194.409 966.629 193.909C966.629 193.409 966.197 193 965.675 193C965.152 193 964.72 193.409 964.72 193.909C964.72 194.409 965.152 194.818 965.675 194.818ZM972.585 196.273H970.722V194.182H969.381V196.273H968.062V197.409H969.381V202.864C969.381 204.386 970.608 205.114 971.744 205.114C972.244 205.114 972.562 205.023 972.744 204.955L972.472 203.75C972.358 203.773 972.176 203.818 971.881 203.818C971.29 203.818 970.722 203.636 970.722 202.5V197.409H972.585V196.273ZM978.398 196.273H976.534V194.182H975.193V196.273H973.875V197.409H975.193V202.864C975.193 204.386 976.42 205.114 977.557 205.114C978.057 205.114 978.375 205.023 978.557 204.955L978.284 203.75C978.17 203.773 977.989 203.818 977.693 203.818C977.102 203.818 976.534 203.636 976.534 202.5V197.409H978.398V196.273ZM981.943 193.364H980.602V205H981.943V193.364ZM988.058 205.182C989.831 205.182 991.126 204.295 991.536 202.977L990.24 202.614C989.899 203.523 989.109 203.977 988.058 203.977C986.484 203.977 985.399 202.96 985.337 201.091H991.672V200.523C991.672 197.273 989.74 196.159 987.922 196.159C985.558 196.159 983.99 198.023 983.99 200.705C983.99 203.386 985.536 205.182 988.058 205.182ZM985.337 199.932C985.428 198.574 986.388 197.364 987.922 197.364C989.376 197.364 990.308 198.455 990.308 199.932H985.337ZM1001.51 205.182C1003.19 205.182 1003.76 204.136 1004.05 203.659H1004.21V205H1005.51V193.364H1004.17V197.659H1004.05C1003.76 197.205 1003.23 196.159 1001.53 196.159C999.325 196.159 997.803 197.909 997.803 200.659C997.803 203.432 999.325 205.182 1001.51 205.182ZM1001.69 203.977C1000.01 203.977 999.143 202.5 999.143 200.636C999.143 198.795 999.984 197.364 1001.69 197.364C1003.33 197.364 1004.19 198.682 1004.19 200.636C1004.19 202.614 1003.3 203.977 1001.69 203.977ZM1011.81 205.182C1013.58 205.182 1014.88 204.295 1015.29 202.977L1013.99 202.614C1013.65 203.523 1012.86 203.977 1011.81 203.977C1010.23 203.977 1009.15 202.96 1009.09 201.091H1015.42V200.523C1015.42 197.273 1013.49 196.159 1011.67 196.159C1009.31 196.159 1007.74 198.023 1007.74 200.705C1007.74 203.386 1009.29 205.182 1011.81 205.182ZM1009.09 199.932C1009.18 198.574 1010.14 197.364 1011.67 197.364C1013.13 197.364 1014.06 198.455 1014.06 199.932H1009.09ZM1023.64 198.227C1023.22 196.989 1022.28 196.159 1020.55 196.159C1018.71 196.159 1017.35 197.205 1017.35 198.682C1017.35 199.886 1018.06 200.693 1019.67 201.068L1021.12 201.409C1022 201.614 1022.42 202.034 1022.42 202.636C1022.42 203.386 1021.62 204 1020.37 204C1019.27 204 1018.59 203.528 1018.35 202.591L1017.08 202.909C1017.39 204.392 1018.61 205.182 1020.39 205.182C1022.42 205.182 1023.8 204.074 1023.8 202.568C1023.8 201.352 1023.04 200.585 1021.48 200.205L1020.19 199.886C1019.15 199.631 1018.69 199.284 1018.69 198.614C1018.69 197.864 1019.48 197.318 1020.55 197.318C1021.72 197.318 1022.21 197.966 1022.44 198.568L1023.64 198.227ZM1025.82 205H1027.16V196.273H1025.82V205ZM1026.5 194.818C1027.03 194.818 1027.46 194.409 1027.46 193.909C1027.46 193.409 1027.03 193 1026.5 193C1025.98 193 1025.55 193.409 1025.55 193.909C1025.55 194.409 1025.98 194.818 1026.5 194.818ZM1033.14 208.455C1035.23 208.455 1036.91 207.5 1036.91 205.25V196.273H1035.62V197.659H1035.48C1035.19 197.205 1034.64 196.159 1032.94 196.159C1030.73 196.159 1029.21 197.909 1029.21 200.591C1029.21 203.318 1030.8 204.864 1032.91 204.864C1034.62 204.864 1035.16 203.864 1035.46 203.386H1035.57V205.159C1035.57 206.614 1034.55 207.273 1033.14 207.273C1031.56 207.273 1031 206.438 1030.64 205.955L1029.57 206.705C1030.12 207.619 1031.19 208.455 1033.14 208.455ZM1033.1 203.659C1031.41 203.659 1030.55 202.386 1030.55 200.568C1030.55 198.795 1031.39 197.364 1033.1 197.364C1034.73 197.364 1035.6 198.682 1035.6 200.568C1035.6 202.5 1034.71 203.659 1033.1 203.659ZM1040.71 199.75C1040.71 198.227 1041.65 197.364 1042.94 197.364C1044.18 197.364 1044.94 198.176 1044.94 199.545V205H1046.28V199.455C1046.28 197.227 1045.09 196.159 1043.32 196.159C1042 196.159 1041.19 196.75 1040.78 197.636H1040.66V196.273H1039.37V205H1040.71V199.75ZM1055.8 205.205C1057.32 205.205 1058.11 204.386 1058.39 203.818H1058.45V205H1059.8V199.25C1059.8 196.477 1057.68 196.159 1056.57 196.159C1055.25 196.159 1053.75 196.614 1053.07 198.205L1054.34 198.659C1054.64 198.023 1055.34 197.341 1056.61 197.341C1057.85 197.341 1058.45 197.994 1058.45 199.114V199.159C1058.45 199.807 1057.8 199.75 1056.2 199.955C1054.59 200.165 1052.82 200.523 1052.82 202.523C1052.82 204.227 1054.14 205.205 1055.8 205.205ZM1056 204C1054.93 204 1054.16 203.523 1054.16 202.591C1054.16 201.568 1055.09 201.25 1056.14 201.114C1056.7 201.045 1058.23 200.886 1058.45 200.614V201.841C1058.45 202.932 1057.59 204 1056 204ZM1068.42 198.227C1068 196.989 1067.06 196.159 1065.33 196.159C1063.49 196.159 1062.13 197.205 1062.13 198.682C1062.13 199.886 1062.85 200.693 1064.45 201.068L1065.9 201.409C1066.78 201.614 1067.2 202.034 1067.2 202.636C1067.2 203.386 1066.4 204 1065.15 204C1064.06 204 1063.37 203.528 1063.13 202.591L1061.86 202.909C1062.17 204.392 1063.39 205.182 1065.17 205.182C1067.2 205.182 1068.58 204.074 1068.58 202.568C1068.58 201.352 1067.82 200.585 1066.27 200.205L1064.97 199.886C1063.94 199.631 1063.47 199.284 1063.47 198.614C1063.47 197.864 1064.27 197.318 1065.33 197.318C1066.5 197.318 1066.99 197.966 1067.22 198.568L1068.42 198.227ZM822.227 234.273H823.568V229.659H823.682C823.977 230.136 824.545 231.182 826.227 231.182C828.409 231.182 829.932 229.432 829.932 226.659C829.932 223.909 828.409 222.159 826.205 222.159C824.5 222.159 823.977 223.205 823.682 223.659H823.523V222.273H822.227V234.273ZM823.545 226.636C823.545 224.682 824.409 223.364 826.045 223.364C827.75 223.364 828.591 224.795 828.591 226.636C828.591 228.5 827.727 229.977 826.045 229.977C824.432 229.977 823.545 228.614 823.545 226.636ZM835.523 231.182C837.886 231.182 839.477 229.386 839.477 226.682C839.477 223.955 837.886 222.159 835.523 222.159C833.159 222.159 831.568 223.955 831.568 226.682C831.568 229.386 833.159 231.182 835.523 231.182ZM835.523 229.977C833.727 229.977 832.909 228.432 832.909 226.682C832.909 224.932 833.727 223.364 835.523 223.364C837.318 223.364 838.136 224.932 838.136 226.682C838.136 228.432 837.318 229.977 835.523 229.977ZM847.706 224.227C847.286 222.989 846.342 222.159 844.615 222.159C842.774 222.159 841.411 223.205 841.411 224.682C841.411 225.886 842.126 226.693 843.729 227.068L845.183 227.409C846.064 227.614 846.479 228.034 846.479 228.636C846.479 229.386 845.683 230 844.433 230C843.337 230 842.649 229.528 842.411 228.591L841.138 228.909C841.45 230.392 842.672 231.182 844.456 231.182C846.484 231.182 847.865 230.074 847.865 228.568C847.865 227.352 847.104 226.585 845.547 226.205L844.251 225.886C843.217 225.631 842.751 225.284 842.751 224.614C842.751 223.864 843.547 223.318 844.615 223.318C845.786 223.318 846.268 223.966 846.501 224.568L847.706 224.227ZM856.065 224.227C855.645 222.989 854.702 222.159 852.974 222.159C851.134 222.159 849.77 223.205 849.77 224.682C849.77 225.886 850.486 226.693 852.088 227.068L853.543 227.409C854.423 227.614 854.838 228.034 854.838 228.636C854.838 229.386 854.043 230 852.793 230C851.696 230 851.009 229.528 850.77 228.591L849.497 228.909C849.81 230.392 851.031 231.182 852.815 231.182C854.844 231.182 856.224 230.074 856.224 228.568C856.224 227.352 855.463 226.585 853.906 226.205L852.611 225.886C851.577 225.631 851.111 225.284 851.111 224.614C851.111 223.864 851.906 223.318 852.974 223.318C854.145 223.318 854.628 223.966 854.861 224.568L856.065 224.227ZM858.243 231H859.584V222.273H858.243V231ZM858.925 220.818C859.447 220.818 859.879 220.409 859.879 219.909C859.879 219.409 859.447 219 858.925 219C858.402 219 857.97 219.409 857.97 219.909C857.97 220.409 858.402 220.818 858.925 220.818ZM862.222 231H863.517V229.659H863.676C863.972 230.136 864.54 231.182 866.222 231.182C868.403 231.182 869.926 229.432 869.926 226.659C869.926 223.909 868.403 222.159 866.199 222.159C864.494 222.159 863.972 223.205 863.676 223.659H863.562V219.364H862.222V231ZM863.54 226.636C863.54 224.682 864.403 223.364 866.04 223.364C867.744 223.364 868.585 224.795 868.585 226.636C868.585 228.5 867.722 229.977 866.04 229.977C864.426 229.977 863.54 228.614 863.54 226.636ZM873.318 219.364H871.977V231H873.318V219.364ZM879.433 231.182C881.206 231.182 882.501 230.295 882.911 228.977L881.615 228.614C881.274 229.523 880.484 229.977 879.433 229.977C877.859 229.977 876.774 228.96 876.712 227.091H883.047V226.523C883.047 223.273 881.115 222.159 879.297 222.159C876.933 222.159 875.365 224.023 875.365 226.705C875.365 229.386 876.911 231.182 879.433 231.182ZM876.712 225.932C876.803 224.574 877.763 223.364 879.297 223.364C880.751 223.364 881.683 224.455 881.683 225.932H876.712ZM886.064 231.091C886.626 231.091 887.087 230.631 887.087 230.068C887.087 229.506 886.626 229.045 886.064 229.045C885.501 229.045 885.041 229.506 885.041 230.068C885.041 230.631 885.501 231.091 886.064 231.091Z" fill="white"/>
</g>
<rect x="792" y="121" width="309" height="134" rx="10" stroke="url(#paint18_radial)" stroke-width="4"/>
<defs>
<radialGradient id="paint0_radial" cx="0" cy="0" r="1" gradientUnits="userSpaceOnUse" gradientTransform="translate(262.5 59) rotate(89.6076) scale(73.0017 118.794)">
<stop stop-color="white"/>
<stop offset="1" stop-color="white" stop-opacity="0"/>
</radialGradient>
<radialGradient id="paint1_radial" cx="0" cy="0" r="1" gradientUnits="userSpaceOnUse" gradientTransform="translate(733.5 289.5) rotate(119.969) scale(301.283 243.86)">
<stop stop-color="white"/>
<stop offset="1" stop-color="white" stop-opacity="0"/>
</radialGradient>
<radialGradient id="paint2_radial" cx="0" cy="0" r="1" gradientUnits="userSpaceOnUse" gradientTransform="translate(563 48.5) rotate(93.7701) scale(433.438 350.827)">
<stop stop-color="white"/>
<stop offset="1" stop-color="white" stop-opacity="0"/>
</radialGradient>
<radialGradient id="paint3_radial" cx="0" cy="0" r="1" gradientUnits="userSpaceOnUse" gradientTransform="translate(432 371) rotate(83.1572) scale(25.1794 25.1844)">
<stop stop-color="white"/>
<stop offset="1" stop-color="white" stop-opacity="0"/>
</radialGradient>
<radialGradient id="paint4_radial" cx="0" cy="0" r="1" gradientUnits="userSpaceOnUse" gradientTransform="translate(693 371) rotate(90) scale(3.5 15.75)">
<stop stop-color="white"/>
<stop offset="1" stop-color="white" stop-opacity="0"/>
</radialGradient>
<radialGradient id="paint5_radial" cx="0" cy="0" r="1" gradientUnits="userSpaceOnUse" gradientTransform="translate(562 166) rotate(90) scale(51 51.5281)">
<stop stop-color="white"/>
<stop offset="1" stop-color="white" stop-opacity="0"/>
</radialGradient>
<radialGradient id="paint6_radial" cx="0" cy="0" r="1" gradientUnits="userSpaceOnUse" gradientTransform="translate(947.5 31.5) rotate(76.6447) scale(71.4318 398.756)">
<stop stop-color="white"/>
<stop offset="1" stop-color="white" stop-opacity="0"/>
</radialGradient>
<radialGradient id="paint7_radial" cx="0" cy="0" r="1" gradientUnits="userSpaceOnUse" gradientTransform="translate(1064 31) rotate(-180) scale(28 23.7604)">
<stop stop-color="white"/>
<stop offset="1" stop-color="white" stop-opacity="0"/>
</radialGradient>
<radialGradient id="paint8_radial" cx="0" cy="0" r="1" gradientUnits="userSpaceOnUse" gradientTransform="translate(35.9999 361) rotate(90) scale(12.0002 14.1202)">
<stop stop-color="white"/>
<stop offset="1" stop-color="white" stop-opacity="0"/>
</radialGradient>
<radialGradient id="paint9_radial" cx="0" cy="0" r="1" gradientUnits="userSpaceOnUse" gradientTransform="translate(35.9999 361) rotate(90) scale(12.0002 14.1202)">
<stop stop-color="white"/>
<stop offset="1" stop-color="white" stop-opacity="0"/>
</radialGradient>
<radialGradient id="paint10_radial" cx="0" cy="0" r="1" gradientUnits="userSpaceOnUse" gradientTransform="translate(80 361) rotate(90) scale(19.5)">
<stop stop-color="white"/>
<stop offset="1" stop-color="white" stop-opacity="0"/>
</radialGradient>
<radialGradient id="paint11_radial" cx="0" cy="0" r="1" gradientUnits="userSpaceOnUse" gradientTransform="translate(123.5 361.5) rotate(87.9546) scale(14.0089)">
<stop stop-color="white"/>
<stop offset="1" stop-color="white" stop-opacity="0"/>
</radialGradient>
<radialGradient id="paint12_radial" cx="0" cy="0" r="1" gradientUnits="userSpaceOnUse" gradientTransform="translate(194 345) rotate(97.8533) scale(73.1864 552.08)">
<stop stop-color="white"/>
<stop offset="1" stop-color="white" stop-opacity="0"/>
</radialGradient>
<radialGradient id="paint13_radial" cx="0" cy="0" r="1" gradientUnits="userSpaceOnUse" gradientTransform="translate(326.5 212.5) rotate(114.027) scale(90.8735 90.8734)">
<stop stop-color="white"/>
<stop offset="1" stop-color="white" stop-opacity="0"/>
</radialGradient>
<radialGradient id="paint14_radial" cx="0" cy="0" r="1" gradientUnits="userSpaceOnUse" gradientTransform="translate(303 226) rotate(90) scale(20)">
<stop stop-color="white"/>
<stop offset="1" stop-color="white" stop-opacity="0"/>
</radialGradient>
<radialGradient id="paint15_radial" cx="0" cy="0" r="1" gradientUnits="userSpaceOnUse" gradientTransform="translate(799 354.5) rotate(43.0651) scale(104.712)">
<stop stop-color="white"/>
<stop offset="1" stop-color="white" stop-opacity="0"/>
</radialGradient>
<radialGradient id="paint16_radial" cx="0" cy="0" r="1" gradientUnits="userSpaceOnUse" gradientTransform="translate(823.5 385) rotate(-46.0947) scale(55.518)">
<stop stop-color="white"/>
<stop offset="1" stop-color="white" stop-opacity="0"/>
</radialGradient>
<radialGradient id="paint17_radial" cx="0" cy="0" r="1" gradientUnits="userSpaceOnUse" gradientTransform="translate(850 150.5) rotate(129.289) scale(35.5317)">
<stop stop-color="white"/>
<stop offset="1" stop-color="white" stop-opacity="0"/>
</radialGradient>
<radialGradient id="paint18_radial" cx="0" cy="0" r="1" gradientUnits="userSpaceOnUse" gradientTransform="translate(947 188) rotate(34.3803) scale(184.174 432.18)">
<stop stop-color="white"/>
<stop offset="1" stop-color="white" stop-opacity="0"/>
</radialGradient>
<clipPath id="clip0">
</clipPath>
</defs>
</svg>
