<svg width="43" height="64" viewBox="0 0 43 64" fill="none" xmlns="http://www.w3.org/2000/svg">
<path d="M10.5044 63.9999C16.3004 63.9999 21.0045 59.2212 21.0045 53.3333V42.6666H10.5044C4.70841 42.6666 0.00439453 47.4453 0.00439453 53.3333C0.00439453 59.2212 4.70841 63.9999 10.5044 63.9999Z" fill="#5ECB89"/>
<path d="M0.00439453 31.9999C0.00439453 26.1119 4.70841 21.3333 10.5044 21.3333H21.0045V42.6665H10.5044C4.70841 42.6665 0.00439453 37.8879 0.00439453 31.9999Z" fill="#9763F6"/>
<path d="M0.00439453 10.6667C0.00439453 4.77867 4.70841 0 10.5044 0H21.0045V21.3333H10.5044C4.70841 21.3333 0.00439453 16.5547 0.00439453 10.6667Z" fill="#E05A32"/>
<path d="M21.0044 0H31.5045C37.3005 0 42.0046 4.77867 42.0046 10.6667C42.0046 16.5547 37.3005 21.3333 31.5045 21.3333H21.0044V0Z" fill="#EE7A69"/>
<path d="M42.0046 31.9999C42.0046 37.8879 37.3005 42.6665 31.5045 42.6665C25.7084 42.6665 21.0044 37.8879 21.0044 31.9999C21.0044 26.1119 25.7084 21.3333 31.5045 21.3333C37.3005 21.3333 42.0046 26.1119 42.0046 31.9999Z" fill="#55BBF8"/>
</svg>
