<svg width="89" height="24" viewBox="0 0 89 24" fill="none" xmlns="http://www.w3.org/2000/svg">
<path d="M16.7279 14.488C16.5999 18.84 14.2959 21.176 10.5519 21.176C6.07187 21.176 3.57587 18.008 3.57587 12.216C3.57587 6.456 6.00787 3.224 10.2319 3.224C13.5599 3.224 15.8959 5.272 16.0559 8.952L18.5199 7.416C18.2319 3.736 14.8399 1.176 10.2319 1.176C4.34387 1.176 0.567871 5.368 0.567871 12.216C0.567871 19.128 4.37587 23.224 10.5519 23.224C15.4479 23.224 18.9999 20.312 19.2239 16.024L16.7279 14.488Z" fill="white"/>
<path d="M23.0286 23H25.7486V1.528H23.0286V23Z" fill="white"/>
<path d="M30.9356 4.216H34.1356V1.528H30.9356V4.216ZM31.1596 23H33.8796V7.032H31.1596V23Z" fill="white"/>
<path d="M50.4139 17.176C50.0939 20.12 48.5899 21.496 46.4459 21.496C43.1499 21.496 41.3259 19.192 41.3259 14.904C41.3259 10.648 43.1179 8.312 45.8699 8.312C47.9499 8.312 49.1979 9.496 49.8379 11.928L52.2699 10.552C51.3739 8.056 49.0379 6.552 46.1259 6.552C41.3899 6.552 38.3179 9.752 38.3179 14.904C38.3179 20.056 41.3899 23.224 46.1259 23.224C49.4859 23.224 51.9499 21.752 52.7179 18.552L50.4139 17.176Z" fill="white"/>
<path d="M64.1514 6.52C61.6234 6.52 59.9274 7.64 58.9674 10.104V1.528H56.2154V23H58.9674V13.4C58.9994 10.616 60.5994 8.472 63.3514 8.472C65.8794 8.472 67.0314 10.168 67.0314 12.536V23H69.7834V12.28C69.7834 8.696 67.7034 6.52 64.1514 6.52Z" fill="white"/>
<path d="M85.0171 0.919998H81.7851L80.0891 4.632H82.0091L85.0171 0.919998ZM86.1691 17.816C85.6251 20.248 84.1211 21.464 81.9771 21.464C78.7451 21.464 76.8571 19.064 76.7931 15.064H88.2811L88.2491 14.968H88.2811C88.2491 9.848 85.7211 6.552 81.3051 6.552C76.8251 6.552 73.8491 9.848 73.8491 14.904C73.8491 20.024 76.8891 23.224 81.6571 23.224C85.1451 23.224 87.3211 21.752 88.4731 19.192L86.1691 17.816ZM81.3051 8.312C83.8651 8.312 85.0491 9.912 85.2731 13.56H76.8571C77.1771 10.296 78.6811 8.312 81.3051 8.312Z" fill="white"/>
</svg>
