<svg width="142" height="147" viewBox="0 0 142 147" fill="none" xmlns="http://www.w3.org/2000/svg">
<path d="M15 21L98 14L125 33.5L127.5 125.5L37.5 132.5L15 101V21Z" fill="white"/>
<path d="M31.6927 32.9106C35.5836 36.0695 37.0432 35.8284 44.3492 35.3413L113.228 31.2081C114.689 31.2081 113.474 29.7517 112.987 29.5096L101.548 21.2453C99.3558 19.5448 96.4356 17.5973 90.8387 18.0844L24.1433 22.9458C21.711 23.1869 21.2251 24.4022 22.1939 25.3764L31.6927 32.9106ZM35.8281 48.9522V121.377C35.8281 125.27 37.7745 126.726 42.1553 126.485L117.853 122.108C122.236 121.867 122.724 119.19 122.724 116.028V44.0887C122.724 40.9319 121.509 39.2294 118.826 39.4724L39.721 44.0887C36.8018 44.3339 35.8281 45.7932 35.8281 48.9522ZM110.557 52.8372C111.042 55.0269 110.557 57.2145 108.362 57.4605L104.714 58.1867V111.656C101.548 113.357 98.6275 114.329 96.1942 114.329C92.2983 114.329 91.3226 113.113 88.4044 109.469L64.5471 72.0406V108.254L72.0964 109.956C72.0964 109.956 72.0964 114.329 66.0057 114.329L49.2148 115.302C48.727 114.329 49.2148 111.901 50.9179 111.414L55.2996 110.2V62.3199L49.2158 61.8328C48.728 59.6432 49.9431 56.4862 53.3532 56.2412L71.3661 55.0278L96.1942 92.9436V59.402L89.864 58.6759C89.3781 55.9992 91.3226 54.0555 93.7569 53.8145L110.557 52.8372ZM18.5434 16.3839L87.9175 11.2785C96.4366 10.5483 98.6285 11.0374 103.983 14.9245L126.128 30.4789C129.782 33.1537 131 33.8819 131 36.7977V122.108C131 127.454 129.051 130.616 122.237 131.1L41.6734 135.962C36.5584 136.206 34.124 135.477 31.4453 132.072L15.1374 110.928C12.2152 107.036 11 104.124 11 100.717V24.8873C11 20.5151 12.9495 16.8681 18.5434 16.3839Z" fill="black"/>
<path fill-rule="evenodd" clip-rule="evenodd" d="M90.8387 18.0844C95.3194 17.6945 98.0846 18.8649 100.134 20.2197C100.162 20.2386 100.191 20.2575 100.219 20.2764C100.696 20.5962 101.135 20.9251 101.548 21.2453L112.987 29.5097C113.03 29.5311 113.079 29.5622 113.131 29.6009C113.163 29.624 113.195 29.6498 113.228 29.6779C113.265 29.7098 113.304 29.7447 113.342 29.782C113.855 30.2794 114.395 31.2081 113.228 31.2081L44.3492 35.3414C44.057 35.3608 43.7741 35.3799 43.5001 35.3984C41.7675 35.5153 40.3876 35.6084 39.2265 35.6268C39.1534 35.6279 39.0811 35.6288 39.0097 35.6293C37.3036 35.6424 36.0737 35.4789 34.8642 34.9652C33.8762 34.5456 32.9018 33.8923 31.6927 32.9106L22.1939 25.3764C21.2278 24.4049 21.7083 23.1938 24.1227 22.9479C24.1295 22.9472 24.1364 22.9465 24.1433 22.9458L90.8387 18.0844ZM18.5434 16.384L87.9175 11.2785C88.7452 11.2076 89.5132 11.1481 90.2302 11.1022C90.2631 11.1001 90.2959 11.098 90.3286 11.096C96.9148 10.6828 99.1726 11.4325 103.983 14.9245L126.128 30.4789C126.319 30.6184 126.502 30.7526 126.68 30.8821C129.748 33.1208 130.888 33.9524 130.992 36.407C130.997 36.5328 131 36.6629 131 36.7977V122.108C131 123.086 130.935 123.991 130.787 124.819C130.193 128.14 128.265 130.239 123.856 130.921C123.35 131 122.811 131.059 122.237 131.1L41.6734 135.962C36.5584 136.206 34.124 135.477 31.4453 132.072L15.1374 110.928C12.2152 107.036 11 104.124 11 100.717V24.8874C11 22.1368 11.7715 19.6733 13.7366 18.1037C14.8951 17.1782 16.4686 16.5635 18.5434 16.384ZM35.8281 121.385C35.8299 124.115 36.791 125.645 38.8805 126.23C38.917 126.241 38.9539 126.251 38.9912 126.26C39.6008 126.418 40.3031 126.499 41.1022 126.509C41.142 126.51 41.182 126.51 41.2222 126.51C41.5201 126.511 41.831 126.503 42.1553 126.485L117.853 122.108C119.271 122.03 120.282 121.697 121 121.175C121.006 121.171 121.012 121.166 121.017 121.162C122.502 120.069 122.724 118.158 122.724 116.028V44.0887C122.724 41.9666 122.175 40.5017 121 39.8432C120.528 39.5787 119.955 39.4443 119.276 39.4497C119.131 39.4509 118.981 39.4584 118.826 39.4725L39.721 44.0887C38.1989 44.2166 37.2057 44.6745 36.6037 45.5314C36.0511 46.3179 35.8281 47.4404 35.8281 48.9522V121.377C35.8281 121.38 35.8281 121.382 35.8281 121.385ZM92.4203 113.568C93.398 114.107 94.5295 114.329 96.1942 114.329C96.8089 114.329 97.4547 114.267 98.1277 114.147C99.2903 113.939 100.534 113.558 101.839 113.024C102.769 112.643 103.73 112.185 104.714 111.656V58.1868L108.362 57.4605C109.803 57.299 110.507 56.3001 110.683 55.0132C110.776 54.3404 110.723 53.589 110.557 52.8372L93.7569 53.8145C92.1606 53.9726 90.7748 54.8628 90.147 56.2118C89.8175 56.92 89.6967 57.7545 89.864 58.6759L96.1942 59.4021V92.9436L71.3661 55.0278L53.3532 56.2412C51.2521 56.3922 49.9843 57.6486 49.4347 59.103C49.0922 60.0092 49.0285 60.9923 49.2158 61.8328L55.2996 62.32V110.2L50.9179 111.414C49.904 111.704 49.3208 112.682 49.1178 113.631C48.9798 114.276 49.0174 114.909 49.2148 115.302L66.0057 114.329C69.8595 114.329 71.2749 112.578 71.7947 111.293C72.0964 110.546 72.0964 109.956 72.0964 109.956C74.0357 109.956 75.5989 109.957 76.8589 109.957L72.0964 109.956L64.5471 108.254V72.0406L88.4044 109.469C90.0757 111.556 91.1098 112.846 92.4203 113.568ZM81.1267 51.683L81.1569 51.7291C81.1652 51.7126 81.1734 51.6962 81.1817 51.6798L81.1267 51.683ZM109.795 6.79222L131.958 22.3591L132.037 22.4169C132.187 22.5269 132.344 22.6411 132.505 22.7581C133.19 23.2579 133.946 23.8094 134.584 24.3073C135.387 24.9337 136.484 25.838 137.502 27.016C138.622 28.3118 139.613 29.8933 140.251 31.8323C140.859 33.6763 141 35.4005 141 36.7977V122.108C141 125.712 140.399 130.811 136.678 135.033C132.876 139.347 127.617 140.737 122.946 141.068L122.893 141.072L42.2131 145.941L42.1499 145.944C39.256 146.082 35.7293 146.054 32.2175 144.773C28.3611 143.367 25.6699 140.9 23.5841 138.249L23.5543 138.211L7.17741 116.977L7.13857 116.925C3.52075 112.107 1 107.112 1 100.717V24.8874C1 21.3659 1.76888 16.8969 4.79188 13.0276C8.01727 8.89919 12.6992 6.85886 17.6806 6.42774L17.7448 6.42218L87.1237 1.31639C91.3129 0.958449 95.3958 0.728739 99.3473 1.62373C103.636 2.5951 106.851 4.65868 109.795 6.79222Z" fill="white"/>
</svg>
