<svg width="148" height="80" viewBox="0 0 148 80" fill="none" xmlns="http://www.w3.org/2000/svg">
<path d="M44.2516 77.9999C32.155 77.9999 21.2747 76.681 13.4796 74.5877C9.5675 73.5371 6.54583 72.321 4.54937 71.0534C2.45623 69.7244 1.99982 68.6829 1.99982 68.1161C1.99982 67.5493 2.45623 66.5078 4.54937 65.1788C6.54583 63.9112 9.5675 62.6951 13.4796 61.6445C21.2747 59.5512 32.155 58.2323 44.2516 58.2323C56.3482 58.2323 67.2286 59.5512 75.0236 61.6445C78.9357 62.6951 81.9574 63.9112 83.9539 65.1788C86.047 66.5078 86.5034 67.5493 86.5034 68.1161C86.5034 68.6829 86.047 69.7244 83.9539 71.0534C81.9574 72.321 78.9357 73.5371 75.0236 74.5877C67.2286 76.6811 56.3482 77.9999 44.2516 77.9999Z" stroke="url(#paint0_radial)" stroke-width="4"/>
<path d="M83.6337 29.6902C65.9719 29.6902 50.0485 27.926 38.598 25.1072C32.8572 23.694 28.3527 22.0424 25.3318 20.2842C22.168 18.4428 21.2675 16.874 21.2675 15.8451C21.2675 14.8162 22.168 13.2474 25.3318 11.406C28.3527 9.64776 32.8572 7.99614 38.598 6.58294C50.0485 3.76417 65.9719 2 83.6338 2C101.296 2 117.219 3.76417 128.669 6.58294C134.41 7.99615 138.915 9.64776 141.936 11.406C145.1 13.2474 146 14.8162 146 15.8451C146 16.874 145.1 18.4428 141.936 20.2842C138.915 22.0424 134.41 23.694 128.669 25.1072C117.219 27.926 101.296 29.6902 83.6337 29.6902Z" stroke="url(#paint1_radial)" stroke-width="4"/>
<path fill-rule="evenodd" clip-rule="evenodd" d="M76.9731 20.122C75.9786 21.7353 74.9379 24.4453 75.0387 27.2027C75.1348 29.8323 76.2561 32.5805 79.7616 34.6519L77.6626 38.0569C72.9031 35.2446 71.1489 31.2255 71.0083 27.3798C70.9908 26.9007 70.9981 26.4257 71.027 25.9572C70.617 26.2006 70.1912 26.4283 69.7501 26.6364C66.2092 28.3067 61.7596 28.6601 57.0001 25.8478L59.0991 22.4427C62.6046 24.5141 65.6108 24.2047 68.0319 23.0625C70.5708 21.8649 72.5348 19.7005 73.5294 18.0872L76.9731 20.122Z" fill="white"/>
<path fill-rule="evenodd" clip-rule="evenodd" d="M43.6605 65.927C44.6387 64.3037 45.6519 61.5834 45.5233 58.8271C45.4007 56.1987 44.2517 53.4619 40.7255 51.426L42.79 48C47.5777 50.7641 49.3724 54.7654 49.5517 58.6094C49.5741 59.0883 49.5715 59.5633 49.5474 60.0321C49.9549 59.7846 50.3784 59.5526 50.8174 59.3401C54.3412 57.6341 58.787 57.2359 63.5746 60L61.5101 63.426C57.9839 61.3902 54.981 61.7299 52.5715 62.8964C50.0449 64.1196 48.1028 66.3037 47.1246 67.927L43.6605 65.927Z" fill="url(#paint2_radial)"/>
<path d="M49.5 60.5L71.5 25" stroke="url(#paint3_radial)" stroke-width="4"/>
<defs>
<radialGradient id="paint0_radial" cx="0" cy="0" r="1" gradientUnits="userSpaceOnUse" gradientTransform="translate(44.2516 68.1161) rotate(-85.5869) scale(47.9249 44.4266)">
<stop stop-color="white"/>
<stop offset="1" stop-color="white" stop-opacity="0"/>
</radialGradient>
<radialGradient id="paint1_radial" cx="0" cy="0" r="1" gradientUnits="userSpaceOnUse" gradientTransform="translate(83.6338 15.8451) rotate(-85.1876) scale(63.9358 64.5842)">
<stop stop-color="white"/>
<stop offset="1" stop-color="white" stop-opacity="0"/>
</radialGradient>
<radialGradient id="paint2_radial" cx="0" cy="0" r="1" gradientUnits="userSpaceOnUse" gradientTransform="translate(50.0137 59.9272) rotate(-54.9115) scale(18.2426 29.0139)">
<stop stop-color="white"/>
<stop offset="1" stop-color="white" stop-opacity="0.73"/>
</radialGradient>
<radialGradient id="paint3_radial" cx="0" cy="0" r="1" gradientUnits="userSpaceOnUse" gradientTransform="translate(69 28.5) rotate(122.229) scale(27.1892 16.8496)">
<stop offset="0.208333" stop-color="white"/>
<stop offset="1" stop-color="white" stop-opacity="0"/>
</radialGradient>
</defs>
</svg>
