<svg width="64" height="58" viewBox="0 0 64 58" fill="none" xmlns="http://www.w3.org/2000/svg">
<path d="M13.9636 1.9096L32 0L50.0363 1.9096L63.9999 20.6819L32 58L0 20.6819L13.9636 1.9096Z" fill="#FDB300"/>
<path d="M12.9616 20.6819L32 58L0 20.6819H12.9616Z" fill="#EA6C00"/>
<path d="M51.0384 20.6819L32 58L64 20.6819H51.0384Z" fill="#EA6C00"/>
<path d="M12.9614 20.6819H51.0382L31.9998 58L12.9614 20.6819Z" fill="#FDAD00"/>
<path d="M31.9998 0L13.9634 1.90957L12.9614 20.6819L31.9998 0Z" fill="#FDD231"/>
<path d="M31.9997 0L50.0361 1.90957L51.0381 20.6819L31.9997 0Z" fill="#FDD231"/>
<path d="M64 20.6819L50.0363 1.90955L51.0384 20.6819H64Z" fill="#FDAD00"/>
<path d="M0 20.6819L13.9636 1.90955L12.9616 20.6819H0Z" fill="#FDAD00"/>
<path d="M31.9998 0L12.9614 20.6819H51.0382L31.9998 0Z" fill="#FEEEB7"/>
</svg>
